<?xml version="1.0" standalone="no"?>
<!DOCTYPE svg PUBLIC "-//W3C//DTD SVG 20010904//EN"
 "http://www.w3.org/TR/2001/REC-SVG-20010904/DTD/svg10.dtd">
<svg version="1.0" xmlns="http://www.w3.org/2000/svg"
 width="2048.000000pt" height="2048.000000pt" viewBox="0 0 2048.000000 2048.000000"
 preserveAspectRatio="xMidYMid meet">

<g transform="translate(0.000000,2048.000000) scale(0.100000,-0.100000)"
fill="#000000" stroke="none">
<path d="M9795 17340 c-317 -21 -584 -56 -903 -115 -528 -100 -997 -251 -1484
-479 l-98 -45 0 -1061 0 -1060 44 -97 c24 -54 66 -138 94 -188 l50 -90 179 -3
180 -2 18 41 c49 107 193 138 293 62 71 -53 93 -163 51 -250 -41 -84 -156
-125 -247 -88 -48 21 -75 47 -97 96 l-18 39 -144 0 -144 0 16 -27 c39 -66 238
-331 327 -436 l98 -114 67 -7 c38 -3 131 -13 208 -21 194 -20 202 -20 209 8
11 47 66 108 119 133 99 46 214 27 284 -47 89 -94 88 -231 -3 -338 l-26 -31
63 -83 c35 -45 83 -108 108 -139 24 -32 51 -58 60 -58 9 0 107 7 218 17 l203
17 15 54 c18 62 70 123 129 155 57 30 165 30 221 0 153 -81 190 -274 74 -395
l-41 -43 77 -255 c43 -140 83 -269 90 -286 12 -29 23 -35 106 -62 l93 -30 54
31 c100 56 223 36 301 -48 22 -24 45 -62 52 -87 7 -23 14 -44 15 -46 4 -6 265
144 371 214 127 84 156 117 185 206 28 86 31 312 5 408 -21 80 -41 107 -102
143 -59 35 -1571 756 -2060 982 -115 53 -237 113 -270 132 -292 170 -441 394
-506 760 -18 102 -22 170 -26 503 -2 212 0 473 4 580 l8 195 115 38 c374 124
882 222 1339 257 172 13 735 13 911 0 447 -33 882 -119 1295 -254 l190 -62 3
-782 2 -781 -112 52 c-62 29 -189 88 -283 130 -93 43 -244 113 -335 155 l-165
77 -5 255 -5 255 -135 22 c-349 56 -682 78 -1045 69 -143 -3 -305 -10 -360
-16 -139 -13 -503 -63 -513 -69 -4 -3 -5 -121 -2 -261 l5 -255 29 -53 c35 -62
67 -84 256 -172 74 -34 205 -95 290 -135 85 -40 225 -105 310 -145 159 -74
371 -174 705 -332 494 -234 863 -416 926 -457 171 -113 283 -262 358 -474 64
-181 75 -264 75 -547 1 -203 -3 -274 -17 -349 -46 -243 -125 -405 -271 -559
-105 -110 -195 -174 -786 -557 -93 -60 -170 -113 -170 -117 0 -5 15 -8 33 -8
17 0 55 -11 84 -24 151 -71 215 -248 142 -394 -52 -106 -128 -153 -257 -160
-77 -4 -87 -3 -148 28 -109 53 -159 143 -152 274 2 49 0 67 -11 71 -17 6 -79
-59 -162 -169 l-59 -79 31 -34 c17 -20 35 -46 40 -60 12 -33 11 -115 -2 -150
-23 -63 -109 -122 -176 -123 l-31 0 -7 -107 c-7 -99 0 -361 9 -371 8 -8 307
151 496 263 744 444 1309 910 1699 1405 410 518 643 1094 701 1730 6 74 10
731 10 1856 l0 1740 -157 74 c-612 285 -1320 468 -2118 546 -188 18 -890 27
-1090 14z"/>
<path d="M8241 13292 c176 -166 237 -219 421 -357 440 -332 791 -532 1206
-684 72 -27 83 -29 78 -13 -57 192 -79 266 -106 360 l-33 112 -46 0 c-58 0
-138 37 -174 79 -15 18 -27 36 -27 39 -1 31 -18 31 -260 7 -238 -24 -246 -24
-270 -6 -34 24 -109 115 -202 244 l-77 107 -48 0 c-26 0 -66 9 -89 19 -47 21
-103 83 -119 132 l-12 34 -129 12 c-71 6 -149 12 -173 12 l-44 1 104 -98z"/>
<path d="M6221 8249 c-299 -26 -555 -174 -712 -413 -108 -164 -151 -313 -152
-526 0 -270 73 -466 241 -642 211 -221 504 -323 830 -290 233 23 413 101 566
243 l58 54 -112 108 c-62 59 -116 110 -121 113 -5 2 -33 -16 -64 -41 -72 -58
-154 -99 -252 -126 -109 -30 -275 -24 -383 14 -342 121 -487 515 -319 865 70
145 205 255 365 296 79 20 250 21 324 1 81 -21 186 -77 257 -135 l62 -52 33
38 c18 21 70 79 115 129 l82 90 -32 33 c-43 46 -139 113 -212 150 -150 75
-363 109 -574 91z"/>
<path d="M4215 8235 c-184 -34 -315 -113 -397 -239 -68 -106 -98 -246 -78
-371 28 -179 131 -290 342 -369 35 -14 158 -52 272 -85 114 -34 229 -72 254
-85 64 -33 109 -82 123 -136 36 -134 -62 -235 -239 -247 -190 -13 -423 60
-613 192 l-75 53 -88 -140 c-48 -77 -85 -146 -82 -153 5 -13 137 -95 221 -138
230 -115 576 -162 797 -109 119 29 197 63 274 118 151 107 228 290 204 482
-15 113 -45 179 -114 248 -102 101 -204 149 -488 230 -184 52 -313 109 -352
154 -75 90 -50 217 52 263 124 56 413 5 655 -114 83 -41 97 -45 97 -29 0 5 29
76 65 156 36 81 65 148 65 151 0 11 -216 106 -292 127 -185 53 -445 71 -603
41z"/>
<path d="M10107 8235 c-394 -75 -691 -372 -753 -755 -80 -494 196 -945 656
-1069 226 -61 470 -50 682 31 92 35 233 126 295 190 l41 43 -114 118 -115 118
-50 -45 c-66 -59 -188 -120 -285 -141 -103 -23 -263 -16 -353 15 -182 64 -326
223 -376 415 -21 78 -21 242 0 320 56 216 215 375 430 430 76 19 231 19 314 0
81 -20 202 -82 267 -139 l50 -44 113 125 112 126 -38 39 c-83 87 -237 171
-378 209 -106 28 -381 36 -498 14z"/>
<path d="M11969 8211 c-372 -81 -634 -346 -711 -721 -26 -125 -21 -326 11
-444 45 -163 127 -302 245 -413 120 -114 214 -168 385 -220 79 -25 100 -27
266 -27 168 0 186 2 268 27 312 96 529 313 624 622 25 84 27 102 27 270 0 167
-2 186 -28 269 -77 253 -237 447 -461 557 -140 69 -229 90 -400 95 -111 3
-158 0 -226 -15z m350 -156 c256 -54 472 -247 555 -495 80 -241 42 -518 -98
-714 -119 -168 -297 -273 -513 -306 -204 -31 -436 42 -593 187 -126 117 -193
230 -232 392 -30 125 -22 322 16 436 40 117 98 209 190 300 106 105 238 175
387 204 71 14 212 12 288 -4z"/>
<path d="M7350 7310 l0 -910 180 0 180 0 2 601 3 601 66 -84 c36 -46 196 -245
355 -443 159 -198 343 -431 409 -518 l119 -157 168 0 c153 0 168 2 168 18 0 9
0 361 1 782 1 421 1 822 0 893 l-1 127 -180 0 -180 0 -2 -600 -3 -601 -200
252 c-110 138 -325 408 -478 600 l-279 349 -164 0 -164 0 0 -910z"/>
<path d="M16063 8213 l-643 -3 0 -905 0 -905 680 0 680 0 0 75 0 75 -595 0
-595 0 0 345 0 345 520 0 520 0 0 80 0 80 -520 0 -520 0 0 325 0 325 580 0
580 0 0 85 c0 82 -1 85 -22 83 -13 -2 -312 -4 -665 -5z"/>
<path d="M13522 7308 l3 -903 88 -3 87 -3 0 331 0 330 313 0 314 0 73 -112
c41 -62 139 -211 218 -330 l145 -218 104 0 103 0 -115 170 c-63 94 -167 247
-231 341 -63 94 -114 172 -112 173 2 1 37 15 78 29 250 91 381 288 367 552
-12 228 -127 398 -329 490 -111 50 -171 55 -658 55 l-451 0 3 -902z m989 715
c117 -44 200 -120 241 -222 19 -47 23 -75 23 -171 0 -104 -3 -120 -26 -170
-53 -110 -131 -175 -258 -213 -59 -18 -103 -21 -428 -25 l-363 -4 0 417 0 416
378 -3 c354 -4 380 -5 433 -25z"/>
</g>
</svg>
